<?xml version="1.0" encoding="utf-8"?>
<!-- Generator: Adobe Illustrator 21.0.0, SVG Export Plug-In . SVG Version: 6.00 Build 0)  -->
<svg version="1.1" id="Layer_1" xmlns="http://www.w3.org/2000/svg" xmlns:xlink="http://www.w3.org/1999/xlink" x="0px" y="0px"
	 viewBox="0 0 30 30" style="enable-background:new 0 0 30 30;" xml:space="preserve">
<style type="text/css">
	.st0{fill:#699DFF;}
	.st1{fill:none;stroke:#699DFF;stroke-miterlimit:10;}
</style>
<g>
	<g>
		<path class="st0" d="M22.9,15.7"/>
		<path class="st0" d="M22.9,12l5.6-3.2C29.2,8.4,30,8.9,30,9.6v10.7c0,0.8-0.8,1.3-1.5,0.9L22.9,18V12z"/>
	</g>
	<g>
		<g>
			<path class="st1" d="M11.8,15.9c0.4,0,0.8-0.1,1.2-0.3s0.7-0.4,1-0.7s0.5-0.6,0.7-1s0.3-0.8,0.3-1.2s-0.1-0.8-0.3-1.2
				s-0.4-0.7-0.7-1s-0.6-0.5-1-0.7s-0.8-0.2-1.2-0.2S11,9.7,10.6,9.8c-0.4,0.2-0.7,0.4-1,0.7s-0.5,0.6-0.7,1s-0.3,0.8-0.3,1.2
				s0.1,0.8,0.3,1.2s0.4,0.7,0.7,1s0.6,0.5,1,0.7C11,15.8,11.4,15.9,11.8,15.9L11.8,15.9z"/>
		</g>
	</g>
	<path class="st0" d="M20.7,3.3H3c-1.7,0-3,1.3-3,3v17.4c0,1.7,1.3,3,3,3h17.7c1.7,0,3-1.3,3-3v-9V6.3C23.7,4.6,22.3,3.3,20.7,3.3z
		 M17.1,16.1c-0.7,1.4-1.4,2.6-2.2,3.8c-0.8,1.2-1.8,2.5-3.1,4.1c-1.3-1.5-2.4-2.9-3.1-4.1c-0.8-1.2-1.5-2.4-2.2-3.8s-1-2.6-1-3.8
		c0-0.9,0.2-1.7,0.5-2.4c0.3-0.8,0.8-1.4,1.4-2s1.2-1,2-1.3C10.1,6.2,11,6,11.8,6c0.9,0,1.7,0.2,2.5,0.5s1.4,0.8,2,1.3
		c0.6,0.6,1,1.2,1.4,2c0.3,0.8,0.5,1.6,0.5,2.4C18.1,13.5,17.8,14.7,17.1,16.1z"/>
</g>
</svg>
