<?xml version="1.0" encoding="utf-8"?>
<!-- Generator: Adobe Illustrator 21.0.0, SVG Export Plug-In . SVG Version: 6.00 Build 0)  -->
<svg version="1.1" id="Layer_1" xmlns="http://www.w3.org/2000/svg" xmlns:xlink="http://www.w3.org/1999/xlink" x="0px" y="0px"
	 viewBox="0 0 20.3 20" style="enable-background:new 0 0 20.3 20;" xml:space="preserve">
<style type="text/css">
	.st0{opacity:0.2;fill:#FFFFFF;enable-background:new    ;}
</style>
<path id="closeEye" class="st0" d="M10.1,4.2c-0.8,0-1.5,0.1-2.2,0.3l1.7,1.8c0.2,0,0.3,0,0.5,0c2.2,0,4,1.8,4,4v0
	c0,0.2,0,0.3-0.1,0.5l2.8,2.9c1.2-1,2.3-2.1,3.3-3.4C20.1,10.3,15.7,4.2,10.1,4.2z M5.1,3.4C4.7,3,4.1,3,3.7,3.3c0,0,0,0,0,0
	c-0.4,0.4-0.4,1,0,1.5l1.1,1.1C3,7.1,1.4,8.6,0.1,10.3c0,0,4.5,6.1,10,6.1c1.4,0,2.7-0.4,3.9-1l1.2,1.2c0.4,0.4,1,0.4,1.4,0
	c0,0,0,0,0,0c0.4-0.4,0.4-1,0-1.5L5.1,3.4z M10.1,14.3c-2.2,0-4-1.8-3.9-4.1l0,0c0-0.8,0.2-1.6,0.7-2.2l1.3,1.4C8.1,9.7,8,10,8,10.3
	c0,1.2,0.9,2.2,2.2,2.2c0.3,0,0.6-0.1,0.8-0.2l1.3,1.3C11.7,14.1,10.9,14.3,10.1,14.3L10.1,14.3z"/>
</svg>
