<?xml version="1.0" encoding="utf-8"?>
<!-- Generator: Adobe Illustrator 21.0.0, SVG Export Plug-In . SVG Version: 6.00 Build 0)  -->
<svg version="1.1" id="Layer_1" xmlns="http://www.w3.org/2000/svg" xmlns:xlink="http://www.w3.org/1999/xlink" x="0px" y="0px"
	 viewBox="0 0 30 30" style="enable-background:new 0 0 30 30;" xml:space="preserve">
<style type="text/css">
	.st0{fill:#699DFF;}
</style>
<g>
	<g>
		<path class="st0" d="M26,4v22H4V4H26 M26,2H4C2.9,2,2,2.9,2,4v22c0,1.1,0.9,2,2,2h22c1.1,0,2-0.9,2-2V4C28,2.9,27.1,2,26,2L26,2z"
			/>
	</g>
</g>
<g>
	<path class="st0" d="M2,14h14v14H7c-2.8,0-5-2.1-5-4.7V14z"/>
</g>
<g>
	<rect x="9.6" y="10" transform="matrix(0.7071 -0.7071 0.7071 0.7071 -1.6012 17.0385)" class="st0" width="20.3" height="1"/>
</g>
</svg>
