<?xml version="1.0" encoding="utf-8"?>
<!-- Generator: Adobe Illustrator 21.0.0, SVG Export Plug-In . SVG Version: 6.00 Build 0)  -->
<svg version="1.1" id="Layer_1" xmlns="http://www.w3.org/2000/svg" xmlns:xlink="http://www.w3.org/1999/xlink" x="0px" y="0px"
	 viewBox="0 0 30 30" style="enable-background:new 0 0 30 30;" xml:space="preserve">
<style type="text/css">
	.st0{fill:#FFFFFF;}
	.st1{fill:none;stroke:#FFFFFF;stroke-width:2;stroke-linecap:round;}
</style>
<g>
	<path id="形状_2745" class="st0" d="M15,7.9c1.8-0.2,3.2-1.7,3-3.6c-0.2-1.8-1.7-3.2-3.6-3c-1.7,0.1-3,1.6-3,3.3
		C11.5,6.5,13.1,8,15,7.9C15,7.9,15,7.9,15,7.9L15,7.9z M19.5,11c-0.1-0.8-0.9-1.5-1.7-1.4h-0.9c-0.2,0-0.5,0.1-0.7,0.3L15,10.8
		l-1.2-1.1c-0.2-0.2-0.4-0.3-0.7-0.3h-0.9c-0.9-0.1-1.6,0.6-1.7,1.4l-0.8,5.9c-0.1,0.3,0,0.5,0.3,0.7c0.2,0.2,0.4,0.3,0.7,0.3h0.9
		l0.8,5.1c0.1,0.8,0.9,1.5,1.7,1.4h2c0.9,0.1,1.6-0.6,1.7-1.4l0.8-5.1h0.9c0.2,0,0.5-0.1,0.7-0.3c0.1-0.2,0.2-0.4,0.1-0.7L19.5,11z"
		/>
	<path id="椭圆_2746" class="st1" d="M25,17.2c1.4,1,2.3,2.6,2.4,4.3c0,4-5.5,7.2-12.4,7.2S2.6,25.5,2.6,21.5c0.1-1.6,0.8-3,2.1-4
		"/>
</g>
</svg>
