<?xml version="1.0" standalone="no"?><!DOCTYPE svg PUBLIC "-//W3C//DTD SVG 1.1//EN" "http://www.w3.org/Graphics/SVG/1.1/DTD/svg11.dtd"><svg t="1637740436762" class="icon" viewBox="0 0 1024 1024" version="1.1" xmlns="http://www.w3.org/2000/svg" p-id="21099" xmlns:xlink="http://www.w3.org/1999/xlink" width="200" height="200"><defs><style type="text/css"></style></defs><path d="M800.5632 890.2656c-5.3248 0-10.6496-1.6384-15.1552-4.7104L512 695.296l-265.0112 184.5248c-8.192 5.7344-18.6368 6.3488-27.4432 1.8432-8.8064-4.7104-14.336-13.7216-14.336-23.552V236.3392c0-57.5488 46.8992-104.448 104.448-104.448h413.0816c57.5488 0 104.448 46.8992 104.448 104.448v627.3024c0 10.0352-5.5296 19.0464-14.336 23.552-3.8912 2.048-8.192 3.072-12.288 3.072zM512 649.8304c8.6016 0 17.2032 2.4576 24.576 7.5776l245.5552 170.8032v-591.872c0-32.768-26.624-59.392-59.392-59.392H309.6576c-32.768 0-59.392 26.624-59.392 59.392v586.3424L487.424 657.408c7.3728-5.12 15.9744-7.5776 24.576-7.5776z" fill="#699DFF" p-id="21100"></path><path d="M438.6816 373.9648m-69.632 0a69.632 69.632 0 1 0 139.264 0 69.632 69.632 0 1 0-139.264 0Z" fill="#699DFF" p-id="21101"></path></svg>