<?xml version="1.0" encoding="utf-8"?>
<!-- Generator: Adobe Illustrator 21.0.0, SVG Export Plug-In . SVG Version: 6.00 Build 0)  -->
<svg version="1.1" id="Layer_1" xmlns="http://www.w3.org/2000/svg" xmlns:xlink="http://www.w3.org/1999/xlink" x="0px" y="0px"
	 viewBox="0 0 30 30" style="enable-background:new 0 0 30 30;" xml:space="preserve">
<style type="text/css">
	.st0{fill:#FFFFFF;}
	.st1{fill:#FCFCFC;}
</style>
<g>
	<path class="st0" d="M15,1.2l13,7.5l-13,7.5L2,8.7L15,1.2 M15,0L0,8.7l15,8.7l15-8.7L15,0L15,0z"/>
</g>
<path class="st1" d="M28.1,14.1l-1.9,1.1L15,21.6L1.9,14.1L0,15.2l15,8.7l15-8.7L28.1,14.1z"/>
<path class="st1" d="M28.1,20.5l-1.9,1.1L15,27.8V28L1.9,20.7L0,21.6L15,30l15-8.4L28.1,20.5z"/>
<g>
	<path class="st1" d="M15.7,4.1c1.4-0.1,3,0.3,4.7,1.3c1.5,0.9,2.3,1.7,2.2,2.6c-0.1,0.8-0.5,1.5-1.4,2c0,0,0,0,0,0c0,0,0,0,0,0
		c0,0-0.1,0.1-0.1,0.1c0,0-0.1,0.1-0.1,0.1c0,0-0.1,0.1-0.1,0.1c0,0-0.1,0.1-0.1,0.1c-0.7,0.3-1.5,0.5-2.6,0.5s-2.1-0.1-3.2-0.2
		c-0.6-0.1-1.1-0.2-1.7-0.2s-1-0.1-1.4-0.2l4.6,2.7l-2.5,1.6l-8.7-5c0,0,0,0,0.1-0.1c0,0,0,0,0.1-0.1c0,0,0-0.1,0.1-0.1
		c0,0,0.1-0.1,0.1-0.1c0.4-0.2,0.8-0.4,1.4-0.6c0.6-0.1,1.2-0.3,1.9-0.3c0.5,0,1,0,1.5,0c0.5,0,1.1,0,1.7,0.1
		c1.3,0.1,2.4,0.2,3.1,0.3c0.8,0,1.4,0,1.8-0.1c0.2,0,0.3-0.1,0.4-0.1c0.1-0.1,0.3-0.1,0.4-0.2L18.1,8c0.2-0.1,0.3-0.3,0.2-0.5
		c-0.1-0.2-0.2-0.4-0.5-0.6c0,0,0,0,0,0c0,0,0,0,0,0c0,0,0,0,0,0c0,0,0,0,0,0c-0.3-0.2-0.8-0.2-1.3-0.2c-0.6,0-1.2,0.2-1.8,0.7
		l-2.9-1.7C13,4.7,14.3,4.2,15.7,4.1z"/>
</g>
</svg>
