<?xml version="1.0" encoding="utf-8"?>
<!-- Generator: Adobe Illustrator 21.0.0, SVG Export Plug-In . SVG Version: 6.00 Build 0)  -->
<svg version="1.1" id="Layer_1" xmlns="http://www.w3.org/2000/svg" xmlns:xlink="http://www.w3.org/1999/xlink" x="0px" y="0px"
	 viewBox="0 0 200 200" style="enable-background:new 0 0 200 200;" xml:space="preserve">
<style type="text/css">
	.st0{fill:#FFFFFF;}
</style>
<path class="st0" d="M167.6,108.3c-4.6-3.6-5.4-10.2-1.9-14.8c0.5-0.7,1.2-1.3,1.9-1.9c8.2-6.4,9.8-18.2,3.4-26.4
	c-4.1-5.3-10.7-8-17.3-7.2c-5.8,0.7-11-3.3-11.8-9.1c-0.1-0.9-0.1-1.8,0-2.7c1.3-10.3-6-19.8-16.3-21.1c-6.6-0.9-13.2,1.9-17.3,7.2
	c-3.8,4.6-10.7,5.2-15.3,1.4c-0.5-0.4-1-0.9-1.4-1.4c-6.4-8.2-18.2-9.8-26.4-3.4c-5.3,4.1-8,10.7-7.2,17.3c0.7,5.8-3.3,11-9.1,11.8
	c-0.9,0.1-1.8,0.1-2.7,0C36,56.8,26.6,64,25.2,74.4c-0.9,6.6,1.9,13.2,7.2,17.3c4.6,3.6,5.4,10.2,1.9,14.8c-0.5,0.7-1.2,1.3-1.9,1.9
	c-8.2,6.4-9.8,18.2-3.4,26.4c4.1,5.3,10.7,8,17.3,7.2c5.8-0.7,11,3.3,11.8,9.1c0.1,0.9,0.1,1.8,0,2.7c-1.2,8.5,3.5,16.7,11.5,19.8
	c2.4,1,4.9,1.5,7.4,1.5c5.8,0,11.2-2.8,14.7-7.4c3.8-4.6,10.7-5.2,15.3-1.4c0.5,0.4,1,0.9,1.4,1.4c6.4,8.2,18.2,9.8,26.4,3.4
	c5.3-4.1,8-10.7,7.2-17.3c-0.7-5.8,3.3-11,9.1-11.8c0.9-0.1,1.8-0.1,2.7,0c10.3,1.3,19.8-6,21.1-16.3
	C175.6,119,172.9,112.4,167.6,108.3L167.6,108.3z M100,129.2c-16.1,0-29.2-13.1-29.2-29.2c0-16.1,13.1-29.2,29.2-29.2
	c16.1,0,29.2,13.1,29.2,29.2C129.1,116.1,116.1,129.1,100,129.2z"/>
</svg>