<?xml version="1.0" standalone="no"?><!DOCTYPE svg PUBLIC "-//W3C//DTD SVG 1.1//EN" "http://www.w3.org/Graphics/SVG/1.1/DTD/svg11.dtd"><svg t="1637736828975" class="icon" viewBox="0 0 1024 1024" version="1.1" xmlns="http://www.w3.org/2000/svg" p-id="7728" xmlns:xlink="http://www.w3.org/1999/xlink" width="200" height="200"><defs><style type="text/css"></style></defs><path d="M513 511.75m-101.09 0a101.09 101.09 0 1 0 202.18 0 101.09 101.09 0 1 0-202.18 0Z" fill="#699DFF" p-id="7729"></path><path d="M513 626.05a114.3 114.3 0 1 1 114.29-114.3A114.43 114.43 0 0 1 513 626.05z m0-165.22a50.93 50.93 0 1 0 50.93 50.92A51 51 0 0 0 513 460.83z" fill="#699DFF" p-id="7730"></path><path d="M516.37 678.33c-99.4 0-178.94-61.46-218.79-99.7a92.58 92.58 0 0 1 0-133.77c65.7-63.05 239.3-189.16 431.89 1a92.66 92.66 0 0 1 0 131.8c-75.78 74.81-148.62 100.67-213.1 100.67z m-1.82-269.6c-68.6 0-128 38.6-173.08 81.85a29.17 29.17 0 0 0 0 42.34c79.35 76.18 203.39 138 343.47-0.36a29.27 29.27 0 0 0 0-41.63c-60.55-59.79-118.14-82.2-170.39-82.2z m192.66 146.38zM896.84 895.64H795.46a31.68 31.68 0 0 1 0-63.36h38v-38a31.68 31.68 0 1 1 63.36 0zM682.47 895.64h-113a31.68 31.68 0 0 1 0-63.36h113a31.68 31.68 0 0 1 0 63.36z m-226 0h-113a31.68 31.68 0 1 1 0-63.36h113a31.68 31.68 0 0 1 0 63.36zM230.54 895.64H129.16V794.26a31.68 31.68 0 1 1 63.36 0v38h38a31.68 31.68 0 1 1 0 63.36zM160.84 713a31.68 31.68 0 0 1-31.68-31.68v-113a31.68 31.68 0 0 1 63.36 0v113A31.68 31.68 0 0 1 160.84 713z m0-226a31.68 31.68 0 0 1-31.68-31.68v-113a31.68 31.68 0 0 1 63.36 0v113A31.68 31.68 0 0 1 160.84 487zM160.84 261a31.68 31.68 0 0 1-31.68-31.68V128h101.38a31.68 31.68 0 1 1 0 63.36h-38v38a31.68 31.68 0 0 1-31.7 31.64zM682.47 191.32h-113a31.68 31.68 0 0 1 0-63.36h113a31.68 31.68 0 0 1 0 63.36z m-226 0h-113a31.68 31.68 0 0 1 0-63.36h113a31.68 31.68 0 1 1 0 63.36zM865.16 261a31.68 31.68 0 0 1-31.68-31.68v-38h-38a31.68 31.68 0 0 1 0-63.36h101.36v101.38A31.68 31.68 0 0 1 865.16 261zM865.16 713a31.68 31.68 0 0 1-31.68-31.68v-113a31.68 31.68 0 0 1 63.36 0v113A31.68 31.68 0 0 1 865.16 713z m0-226a31.68 31.68 0 0 1-31.68-31.68v-113a31.68 31.68 0 0 1 63.36 0v113A31.68 31.68 0 0 1 865.16 487z" fill="#699DFF" p-id="7731"></path></svg>