<?xml version="1.0" standalone="no"?><!DOCTYPE svg PUBLIC "-//W3C//DTD SVG 1.1//EN" "http://www.w3.org/Graphics/SVG/1.1/DTD/svg11.dtd"><svg t="1637740186512" class="icon" viewBox="0 0 1024 1024" version="1.1" xmlns="http://www.w3.org/2000/svg" p-id="16847" xmlns:xlink="http://www.w3.org/1999/xlink" width="200" height="200"><defs><style type="text/css"></style></defs><path d="M492 136h40v232.6h-40z" fill="#699DFF" p-id="16848"></path><path d="M391.6 234.2l-22.9-32.8L514.4 99.6l136.7 102.2-24 32-113.5-84.9zM493.3 660.9h40v232.6h-40z" fill="#699DFF" p-id="16849"></path><path d="M510.8 930L374.2 827.8l23.9-32.1 113.5 84.9 122.1-85.3 22.9 32.8zM658.9 492.6h232.6v40H658.9z" fill="#699DFF" p-id="16850"></path><path d="M825.7 651.7l-32-24 84.9-113.5-85.3-122 32.8-23L927.9 515zM134.6 492.6h232.6v40H134.6z" fill="#699DFF" p-id="16851"></path><path d="M200.4 651.7L98.2 515 200 369.2l32.8 23-85.3 122 84.9 113.5z" fill="#699DFF" p-id="16852"></path><path d="M512 512.1m-40 0a40 40 0 1 0 80 0 40 40 0 1 0-80 0Z" fill="#699DFF" p-id="16853"></path></svg>