<?xml version="1.0" encoding="utf-8"?>
<!-- Generator: Adobe Illustrator 21.0.0, SVG Export Plug-In . SVG Version: 6.00 Build 0)  -->
<svg version="1.1" id="Layer_1" xmlns="http://www.w3.org/2000/svg" xmlns:xlink="http://www.w3.org/1999/xlink" x="0px" y="0px"
	 viewBox="0 0 20 20" style="enable-background:new 0 0 20 20;" xml:space="preserve">
<style type="text/css">
	.st0{opacity:0.6;fill:#FFFFFF;}
</style>
<path class="st0" d="M18.6,16.7l-2.9-2.9c1-1.4,1.6-3,1.6-4.8c0-4.5-3.6-8.1-8.1-8.1S1,4.4,1,8.9S4.6,17,9.1,17
	c1.6,0,3.1-0.5,4.3-1.2l3,3c0.3,0.3,0.7,0.4,1.1,0.4s0.8-0.1,1.1-0.4C19.1,18.2,19.1,17.2,18.6,16.7z M4,8.9c0-2.8,2.3-5.1,5.1-5.1
	s5.1,2.3,5.1,5.1S12,14,9.1,14S4,11.7,4,8.9z"/>
</svg>
