<?xml version="1.0" encoding="utf-8"?>
<!-- Generator: Adobe Illustrator 21.0.0, SVG Export Plug-In . SVG Version: 6.00 Build 0)  -->
<svg version="1.1" id="Layer_1" xmlns="http://www.w3.org/2000/svg" xmlns:xlink="http://www.w3.org/1999/xlink" x="0px" y="0px"
	 viewBox="0 0 30 30" style="enable-background:new 0 0 30 30;" xml:space="preserve">
<style type="text/css">
	.st0{fill:#FFFFFF;}
	.st1{opacity:0.3;fill:#FFFFFF;}
</style>
<g>
	<g>
		<path class="st0" d="M20.5,23L20.5,23c-1.7,1.3-3.8,1.9-5.9,1.9c-0.3,0-0.6,0-0.8,0c-0.1,0-0.2,0-0.3,0c-0.2,0-0.4-0.1-0.6-0.1
			c-0.1,0-0.3-0.1-0.4-0.1c-0.2,0-0.4-0.1-0.6-0.2c-0.1,0-0.2-0.1-0.3-0.1c-0.2-0.1-0.5-0.2-0.7-0.3c-0.1,0-0.1,0-0.1-0.1
			c-0.3-0.1-0.5-0.3-0.8-0.4c0,0,0,0,0,0c-0.8-0.5-1.6-1.1-2.3-1.8c0,0,0,0,0,0c-0.2-0.2-0.4-0.4-0.6-0.7c0-0.1-0.1-0.1-0.1-0.2
			c-1.4-1.9-2.2-4.2-2.2-6.5h2.4l-3-6l-3.9,6h2.4c0,2.5,0.7,5,2.2,7.1c0,0,0,0.1,0,0.1C5,22,5.1,22.1,5.3,22.3
			c0.1,0.1,0.1,0.1,0.2,0.2c0.2,0.3,0.5,0.5,0.7,0.8c0,0,0,0,0.1,0.1C7,24.3,8,25,9,25.6c0,0,0,0,0.1,0c0.3,0.2,0.6,0.3,0.9,0.4
			c0.1,0,0.1,0.1,0.2,0.1c0.3,0.1,0.5,0.2,0.8,0.3c0.1,0,0.2,0.1,0.4,0.1c0.2,0.1,0.5,0.1,0.7,0.2c0.2,0,0.3,0.1,0.5,0.1
			c0.1,0,0.1,0,0.2,0c0.2,0,0.5,0.1,0.7,0.1c0.1,0,0.2,0,0.2,0c0.4,0,0.8,0.1,1.2,0.1c2.5,0,5.4-0.8,7.3-2.6
			c0.6-0.5,0.4-1.3,0.2-1.5C22,22.6,21.2,22.5,20.5,23z M27.3,15.5c0-2.5-0.7-5-2.1-7.1c0,0,0-0.1,0-0.1C25,8,24.8,7.8,24.6,7.5
			c0,0,0-0.1-0.1-0.1c-1.2-1.5-2.8-2.7-4.5-3.5c-0.1,0-0.1,0-0.1-0.1c-0.3-0.1-0.6-0.2-0.9-0.3c-0.1,0-0.2-0.1-0.3-0.1
			c-0.3-0.1-0.5-0.1-0.8-0.2c-0.1,0-0.3-0.1-0.4-0.1c-0.1,0-0.1,0-0.2,0c-0.2,0-0.4,0-0.6-0.1c-0.1,0-0.3,0-0.4-0.1
			c-0.3,0-0.6,0-1,0c-0.1,0-0.1,0-0.2,0c0,0,0,0,0,0c-2.5,0-4.9,0.8-6.9,2.3C7.6,5.7,7.6,6.4,8,6.7C8.2,7,8.8,7.3,9.4,6.9
			C11.1,5.6,13.1,5,15.2,5c0.3,0,0.6,0,0.9,0c0.1,0,0.2,0,0.3,0c0.2,0,0.5,0.1,0.7,0.1c0.1,0,0.2,0,0.3,0.1c0.2,0.1,0.5,0.1,0.7,0.2
			c0.1,0,0.1,0,0.2,0.1c0.3,0.1,0.5,0.2,0.8,0.3c0,0,0.1,0,0.1,0c1.5,0.7,2.8,1.7,3.8,3c0,0,0,0,0,0c1.5,1.9,2.3,4.2,2.3,6.6h-2.5
			l3.1,6l3.9-6L27.3,15.5z"/>
	</g>
</g>
<path class="st1" d="M15,12.7c1.5,0,2.7,1.2,2.7,2.7S16.5,18,15,18s-2.7-1.2-2.7-2.7S13.5,12.7,15,12.7z"/>
</svg>
