<?xml version="1.0" encoding="utf-8"?>
<!-- Generator: Adobe Illustrator 21.0.0, SVG Export Plug-In . SVG Version: 6.00 Build 0)  -->
<svg version="1.1" id="Layer_1" xmlns="http://www.w3.org/2000/svg" xmlns:xlink="http://www.w3.org/1999/xlink" x="0px" y="0px"
	 viewBox="0 0 30 30" style="enable-background:new 0 0 30 30;" xml:space="preserve">
<style type="text/css">
	.st0{fill:#FFFFFF;}
	.st1{fill:none;stroke:#FFFFFF;stroke-width:2;stroke-linecap:round;stroke-linejoin:round;stroke-miterlimit:10;}
</style>
<g>
	<g>
		<path class="st0" d="M21.2,3.8c3.6,0,6.4,2.8,6.4,6.3c0,4.6-4.4,8.5-11.1,14.5l-0.3,0.3L15,25.9l-1.6-1.4
			c-6.7-6-11.1-9.9-11.1-14.5c0-3.5,2.8-6.3,6.5-6.3c1.8,0,3.5,0.7,4.8,1.9L15,6.9l1.4-1.3C17.7,4.4,19.4,3.8,21.2,3.8 M21.2,1.8
			c-2.3,0-4.5,0.9-6.2,2.4c-1.7-1.6-3.9-2.4-6.2-2.4c-4.7,0-8.5,3.6-8.5,8.3c0,5.4,4.7,9.6,11.7,16l2.3,2c0.2,0.2,0.4,0.2,0.6,0.2
			s0.5-0.1,0.6-0.2l2-1.7l0.3-0.3c7.1-6.3,11.7-10.5,11.7-16C29.6,5.4,25.9,1.8,21.2,1.8L21.2,1.8z"/>
	</g>
	<path class="st1" d="M2,13.5h7.8l1.7-2.7l2.6,5.4c0.2,0.4,0.7,0.7,1.1,0.7h0c0.5,0,0.9-0.3,1.1-0.7l1.9-3.8l0.5,1.1l8.9,0"/>
</g>
</svg>
