<?xml version="1.0" encoding="utf-8"?>
<!-- Generator: Adobe Illustrator 21.0.0, SVG Export Plug-In . SVG Version: 6.00 Build 0)  -->
<svg version="1.1" id="Layer_1" xmlns="http://www.w3.org/2000/svg" xmlns:xlink="http://www.w3.org/1999/xlink" x="0px" y="0px"
	 viewBox="0 0 20 20" style="enable-background:new 0 0 20 20;" xml:space="preserve">
<style type="text/css">
	.st0{opacity:0.6;fill:#FFFFFF;enable-background:new    ;}
</style>
<path id="openEye" class="st0" d="M9.5,4C3.7,4,0,10,0,10s4.2,6,10,6s10-6,10-6S15.3,4,9.5,4L9.5,4z M14,10c0,2.2-1.8,4-4,4
	c-2.2,0-4-1.8-4-4v0c0-2.2,1.8-4,4-4C12.2,6,14,7.8,14,10L14,10z M10,8c-1.1,0-2,0.9-2,2s0.9,2,2,2s2-0.9,2-2l0,0
	C12,8.9,11.1,8,10,8L10,8z"/>
</svg>
