<?xml version="1.0" encoding="utf-8"?>
<!-- Generator: Adobe Illustrator 21.0.0, SVG Export Plug-In . SVG Version: 6.00 Build 0)  -->
<svg version="1.1" id="Layer_1" xmlns="http://www.w3.org/2000/svg" xmlns:xlink="http://www.w3.org/1999/xlink" x="0px" y="0px"
	 viewBox="0 0 30 30" style="enable-background:new 0 0 30 30;" xml:space="preserve">
<style type="text/css">
	.st0{opacity:0.4;}
	.st1{fill:#FFFFFF;}
</style>
<g class="st0">
	<path class="st1" d="M17.8,27.5 M17.8,2.5"/>
	<rect x="17.3" y="2.5" class="st1" width="1" height="25"/>
</g>
<g class="st0">
	<path class="st1" d="M10.8,27.4 M10.8,3.4"/>
	<rect x="10.3" y="3.4" class="st1" width="1" height="24.1"/>
</g>
<g class="st0">
	<path class="st1" d="M4.8,19.5 M24.8,20.5"/>
	
		<rect x="14.3" y="10" transform="matrix(4.993762e-02 -0.9988 0.9988 4.993762e-02 -5.9525 33.7423)" class="st1" width="1" height="20"/>
</g>
<g class="st0">
	<path class="st1" d="M25.8,14.5 M3.8,14.5"/>
	<rect x="3.8" y="14" class="st1" width="22" height="1"/>
</g>
<g class="st0">
	<path class="st1" d="M25.8,8.7 M3.3,9.8"/>
	
		<rect x="3.3" y="8.8" transform="matrix(0.9989 -4.784349e-02 4.784349e-02 0.9989 -0.4269 0.7079)" class="st1" width="22.5" height="1"/>
</g>
<g>
	<g>
		<path class="st1" d="M23.8,3.8v22.4l-18-2.4V6.2L23.8,3.8 M24.8,0.6c-0.1,0-0.2,0-0.3,0l-20,2.7c-1,0.1-1.7,1-1.7,2v19.3
			c0,1,0.7,1.8,1.7,2l20,2.7c0.1,0,0.2,0,0.3,0c1.1,0,2-0.9,2-2V2.6C26.8,1.5,25.8,0.6,24.8,0.6L24.8,0.6z"/>
	</g>
</g>
</svg>
