<?xml version="1.0" standalone="no"?><!DOCTYPE svg PUBLIC "-//W3C//DTD SVG 1.1//EN" "http://www.w3.org/Graphics/SVG/1.1/DTD/svg11.dtd"><svg t="1637740327530" class="icon" viewBox="0 0 1024 1024" version="1.1" xmlns="http://www.w3.org/2000/svg" p-id="19500" xmlns:xlink="http://www.w3.org/1999/xlink" width="200" height="200"><defs><style type="text/css"></style></defs><path d="M736 597.333333v-53.333333h-448V597.333333h-64v-85.333333a32 32 0 0 1 32-32h224V426.666667h64v53.333333H768a32 32 0 0 1 32 32v85.333333h-64z" fill="#699DFF" p-id="19501"></path><path d="M853.333333 938.666667h-170.666666a85.333333 85.333333 0 0 1-85.333334-85.333334v-170.666666a85.333333 85.333333 0 0 1 85.333334-85.333334h170.666666a85.333333 85.333333 0 0 1 85.333334 85.333334v170.666666a85.333333 85.333333 0 0 1-85.333334 85.333334z m21.333334-256a21.333333 21.333333 0 0 0-21.333334-21.333334h-170.666666a21.333333 21.333333 0 0 0-21.333334 21.333334v170.666666a21.333333 21.333333 0 0 0 21.333334 21.333334h170.666666a21.333333 21.333333 0 0 0 21.333334-21.333334v-170.666666zM597.333333 426.666667h-170.666666a85.333333 85.333333 0 0 1-85.333334-85.333334V170.666667a85.333333 85.333333 0 0 1 85.333334-85.333334h170.666666a85.333333 85.333333 0 0 1 85.333334 85.333334v170.666666a85.333333 85.333333 0 0 1-85.333334 85.333334z m21.333334-256a21.333333 21.333333 0 0 0-21.333334-21.333334h-170.666666a21.333333 21.333333 0 0 0-21.333334 21.333334v170.666666a21.333333 21.333333 0 0 0 21.333334 21.333334h170.666666a21.333333 21.333333 0 0 0 21.333334-21.333334V170.666667z m-192 512v170.666666a85.333333 85.333333 0 0 1-85.333334 85.333334H170.666667a85.333333 85.333333 0 0 1-85.333334-85.333334v-170.666666a85.333333 85.333333 0 0 1 85.333334-85.333334h170.666666a85.333333 85.333333 0 0 1 85.333334 85.333334zM149.333333 682.666667v170.666666a21.333333 21.333333 0 0 0 21.333334 21.333334h170.666666a21.333333 21.333333 0 0 0 21.333334-21.333334v-170.666666a21.333333 21.333333 0 0 0-21.333334-21.333334H170.666667a21.333333 21.333333 0 0 0-21.333334 21.333334z" fill="#699DFF" p-id="19502"></path></svg>