<?xml version="1.0" encoding="utf-8"?>
<!-- Generator: Adobe Illustrator 21.0.0, SVG Export Plug-In . SVG Version: 6.00 Build 0)  -->
<svg version="1.1" id="Layer_1" xmlns="http://www.w3.org/2000/svg" xmlns:xlink="http://www.w3.org/1999/xlink" x="0px" y="0px"
	 viewBox="0 0 30 30" style="enable-background:new 0 0 30 30;" xml:space="preserve">
<style type="text/css">
	.st0{fill:#699DFF;}
</style>
<path class="st0" d="M27.7,4.5H2.2C1,4.5,0,5.5,0,6.8v16.5c0,1.3,1,2.3,2.2,2.3h6c0.8,0,1.4-0.4,1.8-0.9l5-6.8l5,6.8
	c0.5,0.6,1.1,0.9,1.8,0.9h6c1.3,0,2.3-1,2.3-2.3V6.8C30,5.5,29,4.5,27.7,4.5z M5.9,15c-1.7,0-3.1-1.4-3.1-3.1c0-1.7,1.4-3.1,3.1-3.1
	s3.1,1.4,3.1,3.1C9.1,13.6,7.7,15,5.9,15z M24.2,15c-1.7,0-3.1-1.4-3.1-3.1c0-1.7,1.4-3.1,3.1-3.1s3.1,1.4,3.1,3.1
	C27.3,13.6,25.9,15,24.2,15z"/>
</svg>
